<svg xmlns="http://www.w3.org/2000/svg" viewBox="0 0 512 512" width="512" height="512" role="img" aria-label="Ukishima">
  <rect width="512" height="512" rx="0" fill="#000"/>
  <path fill="#fff" d="M 63.842 115.389 C 57.327 117.144, 48.389 122.749, 44.404 127.580 C 38.264 135.022, 36.541 140.254, 36.525 151.500 C 36.513 160.174, 36.853 162.230, 39.088 167.006 C 42.363 174.001, 47.018 178.651, 53.994 181.894 C 58.600 184.035, 60.974 184.457, 68.518 184.477 C 76.661 184.498, 78.164 184.191, 84.018 181.309 C 89.897 178.416, 102.160 167.533, 107.466 160.500 C 108.961 158.519, 108.993 158.523, 110.879 160.932 C 113.254 163.965, 115.418 169.274, 122.526 189.500 C 128.675 207, 135.975 223.179, 141.108 230.687 C 142.918 233.334, 146.836 237.854, 149.814 240.731 C 152.840 243.654, 155.004 246.548, 154.718 247.291 C 154.438 248.023, 152.249 249.202, 149.854 249.911 C 137.641 253.531, 122.806 263.044, 111.328 274.614 C 97.647 288.406, 91.504 298.252, 79.087 326.291 C 67.184 353.170, 62.249 362.566, 57.049 368.256 C 51.078 374.789, 47.261 376.508, 35.363 378.019 C 20.660 379.888, 22 378.935, 22 387.519 L 22 395 74.364 395 L 126.728 395 134.475 372.250 C 149.168 329.099, 162.325 299.149, 171.704 287.500 C 180.949 276.018, 194.239 269.481, 210.750 268.296 L 219 267.703 219 312.802 C 219 341.554, 218.605 359.742, 217.911 362.980 C 215.529 374.085, 210.194 376.745, 184.750 379.517 L 179 380.144 179 387.572 L 179 395 252.542 395 L 326.084 395 325.792 387.250 L 325.500 379.500 319 378.850 C 311.563 378.106, 300.843 375.487, 296.913 373.455 C 293.139 371.504, 289.256 366.584, 288.044 362.219 C 287.404 359.914, 287.009 341.245, 287.006 313.102 L 287 267.705 295.250 268.357 C 311.342 269.630, 320.533 273.405, 329.542 282.440 C 341.514 294.447, 352.376 317.802, 367.938 365 L 377.665 394.500 430.332 394.759 L 483 395.018 483 387.528 C 483 378.943, 484.251 379.859, 470 378.003 C 459.822 376.677, 452.247 373.306, 447.939 368.186 C 444.481 364.076, 434.747 344.668, 424.074 320.602 C 411.446 292.131, 399.020 275.727, 379.500 261.762 C 373.457 257.438, 362.102 251.677, 356.146 249.911 C 353.751 249.202, 351.564 248.027, 351.285 247.300 C 351.006 246.573, 353.714 242.867, 357.302 239.063 C 367.929 227.797, 374.936 214.019, 384.833 184.923 C 389.789 170.352, 394.026 160.720, 396.021 159.487 C 396.604 159.127, 398.032 160.108, 399.195 161.666 C 404.116 168.261, 416.078 178.897, 421.644 181.626 C 426.773 184.141, 428.617 184.498, 436.500 184.499 C 444.335 184.500, 446.238 184.137, 451.203 181.700 C 454.501 180.080, 458.793 176.800, 461.382 173.920 C 467.378 167.251, 469.488 160.898, 469.495 149.500 C 469.499 141.848, 469.103 139.654, 466.852 134.852 C 462.270 125.079, 453.948 118.417, 442.500 115.359 C 439.750 114.625, 432.854 114.018, 427.176 114.012 C 407.150 113.989, 392.424 121.737, 380.359 138.646 C 374.244 147.214, 370.200 156.413, 362.136 180.091 C 350.990 212.817, 345.978 222.156, 332.076 236.098 C 321.899 246.304, 317.222 248.138, 299.750 248.773 L 287 249.236 287.006 200.868 C 287.009 170.202, 287.395 151.118, 288.060 148.723 C 289.935 141.972, 294.032 138.480, 302.880 136.093 C 307.204 134.926, 314.062 133.641, 318.121 133.236 L 325.500 132.500 325.792 124.750 L 326.084 117 252.542 117 L 179 117 179 124.481 C 179 131.439, 179.157 131.993, 181.250 132.411 C 206.882 137.528, 215.680 142.227, 217.920 152 C 218.546 154.735, 218.961 174.644, 218.976 202.750 L 219 249 208.250 248.988 C 190.864 248.969, 182.981 245.925, 172.940 235.354 C 160.765 222.535, 152.826 207.318, 142.497 177 C 138.844 166.275, 134.077 153.863, 131.905 149.417 C 123.452 132.120, 109.317 119.584, 93.500 115.359 C 87.276 113.697, 70.063 113.714, 63.842 115.389"/>
</svg>
