<svg xmlns="http://www.w3.org/2000/svg" viewBox="0 0 334.41 327.82"><defs><style>.cls-1{fill:#fff;}</style></defs><g id="Capa_2" data-name="Capa 2"><g id="Capa_1-2" data-name="Capa 1"><path class="cls-1" d="M164.39,188.26c-1.63,25.05-9.18,41.61-23.9,52.89-13.38,10.33-31.85,12.5-45,12.5-22.69,0-39.17-5.67-50.36-17.34C29.19,219.54,26,198.34,26,169.57V138.74c0-25.33-.54-37.6-.82-44.18l0-.77c-.68-15.7-10-20.15-25.12-21.5V70.08H62.52v2.17C45.22,73.53,35,77.82,34,93.69l0,.62c-.58,7.91-1.39,18.74-1.39,44.43v29.12c0,52.94,16.87,75.52,56.39,75.52,17.59,0,31.52-5.82,41.21-16.72h.1l.8-1a58.3,58.3,0,0,0,10.79-20.3l.41-1.3,0,0a85.39,85.39,0,0,0,2.59-12.13c3.26-.83,6.89-1.57,11.28-2.31C158.66,189.17,161.41,188.73,164.39,188.26ZM120.77,70.08v2.18c9.64.69,16.37,1.79,20.4,6.45,3,3.52,4.18,8.59,4.56,16.79l.06,0v.09a15.31,15.31,0,0,1,3.74,13.2h0a15.06,15.06,0,0,1-3.64,7.48v48.33c.78-.34,1.56-.68,2.35-1a128,128,0,0,1,16.49-5.42V104.48c0-25.86,2.66-29.92,25.13-32.14V70.08Z"/><path class="cls-1" d="M131,225.7a58.3,58.3,0,0,0,10.79-20.3l.41-1.3,0,0a58.29,58.29,0,0,1-12.07,22.6h.1Z"/><path class="cls-1" d="M225.27,148.19l-8.07,1.1Z"/><path class="cls-1" d="M234,179.39l1.3-.18Z"/><path class="cls-1" d="M225.06,180.55l.64-.08Z"/><path class="cls-1" d="M232.61,179.57l3.44-.46Z"/><path class="cls-1" d="M214.78,181.8l2.94-.35Z"/><path class="cls-1" d="M223.59,180.73l3.5-.44Z"/><path class="cls-1" d="M245.1,139.68c4.54-25.51,9.24-51.88,14.66-77.7,2.94-14,6.72-28.81,14.38-42.23l.59-1.07c1.36-2.51,3.06-5.63,6.71-6.74L285,10.87l.31,3.69c.08.85.14,1.68.2,2.5.12,1.7.24,3.31.46,4.88a16.64,16.64,0,0,0,14.39,14.2c8,.8,14.55-3.51,17.13-11.25a18,18,0,0,0-1.2-14.84c-2.72-4.7-7.6-8-13.74-9.25-10.42-2.14-21,0-31.49,6.37C253.57,17.79,244,34.81,236.91,50.06c-11.65,25.14-18,51.55-22.74,74.07-1.81,8.7-3.49,17.49-5.09,26.29,10.79-1.55,21.61-3,32.17-4.34l2.78-.37C244.39,143.7,244.75,141.68,245.1,139.68Z"/><path class="cls-1" d="M201.92,192.49c-4.11,25-8.37,50.84-13.89,76.07-3.23,14.75-6.67,26.91-12.95,38.32-.22.4-.44.82-.66,1.25-1.59,3.07-3.77,7.28-9.56,8.67l-5.21,1.25,1.66-5.1c2.43-7.48.15-14.45-6.1-18.66a16.11,16.11,0,0,0-9-2.68A15.12,15.12,0,0,0,136,295.39c-5.73,5.23-7.52,11.91-5.15,19.32,2.3,7.21,8,11.48,17,12.7,13.37,1.8,25.84-2.33,38.15-12.65,10.42-8.73,18.61-20.24,26.56-37.32,10.38-22.31,15.27-46.79,20-70.46l.59-3c1.67-8.35,3.28-16.76,4.84-25.17l-2,.26-3.44.46q-2.76.38-5.52.72l-3.5.44-5.87.72-2.94.35-8.4,1-2.92.35C203,186.27,202.43,189.39,201.92,192.49Z"/><path class="cls-1" d="M252,176.77a290.48,290.48,0,0,0,30.92-6.42,123.19,123.19,0,0,1,16,7.29c10.73,5.94,17.83,11.76,23,18.89,6.05,8.32,8.14,16.45,6.4,24.87-1.12,5.43-3.94,8.74-8.37,9.82a10.42,10.42,0,0,1-11.43-3.91,9.57,9.57,0,0,1,.16-11.41,9.07,9.07,0,0,1,7.28-3.67,10.86,10.86,0,0,1,4.08.83l5,2-.89-5.29c-.72-4.33-3.74-6.17-5.74-7.39-.26-.16-.52-.31-.77-.48-7.32-4.71-15.24-7.56-24.89-10.39-16.08-4.71-32.61-8.63-48.61-12.42l.21-1.15m-41.47-26.61.54-3c-10.79-2.71-21.77-5.5-32.63-8.44V156.8c8.56-1.9,17.28-3.23,25.75-4.51l1.9-.29M140.5,98.87a11.31,11.31,0,0,0-2.9-1.73,11.86,11.86,0,0,0-4.49-.92,10,10,0,0,0-4.48,1,12.19,12.19,0,0,0-6.17,8c-1.81,6.5-.91,13.32,2.67,20.25,3.25,6.3,8,11.71,14.76,16.75V129.78a64.46,64.46,0,0,1-7.82-4.44l-.63-.41c-1.66-1.05-4-2.5-4.6-5.39L126,116l3.69-.07h1.74c1.08,0,2.11,0,3.1-.07a10,10,0,0,0,6.25-2.83,9.56,9.56,0,0,0,2.81-5.15,9.25,9.25,0,0,0-2.84-8.7Z"/><path class="cls-1" d="M334.1,117.54a12.22,12.22,0,0,0-5.21-8.63,10.31,10.31,0,0,0-5.59-1.6,12,12,0,0,0-3.32.48,9.31,9.31,0,0,0-7.2,9.91,9.93,9.93,0,0,0,8.08,9c1,.18,2.05.31,3.15.44l1.65.21,3.68.49-1.25,3.49c-1,2.78-3.41,4-5.18,4.81-.23.11-.46.22-.68.34-9.19,4.7-19.16,6.76-28.56,8.28-17.18,2.79-34.7,5.09-51.64,7.3-14,1.84-28.54,3.74-42.75,5.91l-1.9.29c-9.57,1.45-19.46,3-28.93,5.27a123.66,123.66,0,0,0-17.94,5.71c-2.17.89-4.29,1.84-6.3,2.81-8,3.86-13.93,8.08-18.72,13.3-7,7.58-10,15.42-9.22,24,.49,5.53,2.91,9.14,7.18,10.72a12.38,12.38,0,0,0,3.85.8A52.19,52.19,0,0,0,135.65,205a9.32,9.32,0,0,0-10.2-3l-5.16,1.43,1.49-5.15c1.22-4.24,4.44-5.72,6.58-6.7l.8-.37a68.74,68.74,0,0,1,12.14-4.52c3.94-1.08,8.31-2,13.77-2.94,3.63-.62,7.58-1.25,12.06-1.92,12.84-1.91,25.91-3.45,38.55-4.94,14.9-1.75,30.3-3.57,45.34-6s32.41-5.77,49.26-12.66c10.12-4.14,21.46-9.85,28.83-20.82h0C333.47,130.88,335.15,124.21,334.1,117.54Z"/></g></g></svg>
